{"title":"WWE FRIDAY NIGHT SMACKDOWN 18 11 2011 HDTV BZINGAZ","uid":6830822,"size":560485698,"categoryP":"video","categoryS":"tv_shows","magnet":"?xt=urn:btih:26e18f2f0c7bd0924281c0fe5e484a81b73c5d68&amp;dn=WWE+FRIDAY+NIGHT+SMACKDOWN+18+11+2011+HDTV+BZINGAZ&amp;tr=udp%3A%2F%2Ftracker.openbittorrent.com%3A80&amp;tr=udp%3A%2F%2Fopen.demonii.com%3A1337&amp;tr=udp%3A%2F%2Ftracker.coppersurfer.tk%3A6969&amp;tr=udp%3A%2F%2Fexodus.desync.com%3A6969","seeders":0,"leechers":0,"uploader":"bzingaz","files":-1,"time":1321871638,"description":"WWE FRIDAY NIGHT SMACKDOWN 18 11 2011 HDTV IN MKV FORMAT..Download**Enjoy**Seed\n\n\nSCREENSHOTS:\n\n &lt;a href=&quot;\nhttp://img7.imageshack.us/img7/1811/vlcsnap2011112013h26m18.png&quot; rel=&quot;nofollow&quot; target=&quot;_NEW&quot;&gt;\nhttp://img7.imageshack.us/img7/1811/vlcsnap2011112013h26m18.png&lt;/a&gt;\n &lt;a href=&quot;\nhttp://img846.imageshack.us/img846/6126/vlcsnap2011112013h26m29.png&quot; rel=&quot;nofollow&quot; target=&quot;_NEW&quot;&gt;\nhttp://img846.imageshack.us/img846/6126/vlcsnap2011112013h26m29.png&lt;/a&gt;\n &lt;a href=&quot;\nhttp://img829.imageshack.us/img829/3640/vlcsnap2011112013h27m26.png&quot; rel=&quot;nofollow&quot; target=&quot;_NEW&quot;&gt;\nhttp://img829.imageshack.us/img829/3640/vlcsnap2011112013h27m26.png&lt;/a&gt;\n &lt;a href=&quot;\nhttp://img832.imageshack.us/img832/3639/vlcsnap2011112013h27m58.png&quot; rel=&quot;nofollow&quot; target=&quot;_NEW&quot;&gt;\nhttp://img832.imageshack.us/img832/3639/vlcsnap2011112013h27m58.png&lt;/a&gt;\n\n\nDETAILS ARE:\n\n\n\nVideo\nFormat : AVC\nFormat/Info : Advanced Video Codec\nFormat profile : &lt;a class=&quot;__cf_email__&quot; href=&quot;/cdn-cgi/l/email-protection&quot; data-cfemail=&quot;296448404769651a0719&quot;&gt;[email&amp;#160;protected]&lt;/a&gt;&lt;script cf-hash='f9e31' type=&quot;text/javascript&quot;&gt;\n/* &lt;![CDATA[ */!function(){try{var t=&quot;currentScript&quot;in document?document.currentScript:function(){for(var t=document.getElementsByTagName(&quot;script&quot;),e=t.length;e--;)if(t[e].getAttribute(&quot;cf-hash&quot;))return t[e]}();if(t&amp;&amp;t.previousSibling){var e,r,n,i,c=t.previousSibling,a=c.getAttribute(&quot;data-cfemail&quot;);if(a){for(e=&quot;&quot;,r=parseInt(a.substr(0,2),16),n=2;a.length-n;n+=2)i=parseInt(a.substr(n,2),16)^r,e+=String.fromCharCode(i);e=document.createTextNode(e),c.parentNode.replaceChild(e,c)}}}catch(u){}}();/* ]]&gt; */&lt;/script&gt;\nFormat settings, CABAC : Yes\nFormat settings, ReFrames : 3 frames\nCodec ID : 7\nDuration : 1h 22mn\nBit rate : 772 Kbps\nWidth : 634 pixels\nHeight : 360 pixels\nDisplay aspect ratio : 16:9\nFrame rate mode : Constant\nFrame rate : 29.970 fps\nColor space : YUV\nChroma subsampling : 4:2:0\nBit depth : 8 bits\nScan type : Progressive\nBits/(Pixel*Frame) : 0.113\nStream size : 454 MiB (85%)\n\nAudio\nFormat : AAC\nFormat/Info : Advanced Audio Codec\nFormat profile : LC\nCodec ID : 10\nDuration : 1h 22mn\nBit rate : 129 Kbps\nChannel(s) : 2 channels\nChannel positions : Front: L R\nSampling rate : 44.1 KHz\nCompression mode : Lossy\nStream size : 75.6 MiB (14%)\n","torrent":{"xt":"urn:btih:26e18f2f0c7bd0924281c0fe5e484a81b73c5d68","amp;dn":"WWE+FRIDAY+NIGHT+SMACKDOWN+18+11+2011+HDTV+BZINGAZ","amp;tr":["udp%3A%2F%2Ftracker.openbittorrent.com%3A80","udp%3A%2F%2Fopen.demonii.com%3A1337","udp%3A%2F%2Ftracker.coppersurfer.tk%3A6969","udp%3A%2F%2Fexodus.desync.com%3A6969"],"infoHash":"26e18f2f0c7bd0924281c0fe5e484a81b73c5d68","infoHashBuffer":{"type":"Buffer","data":[38,225,143,47,12,123,208,146,66,129,192,254,94,72,74,129,183,60,93,104]},"announce":[],"urlList":[]}}